<?xml version="1.0" encoding="utf-8"?>
<svg version="1.1" width="25px" height="30px" xmlns:xlink="http://www.w3.org/1999/xlink" xmlns="http://www.w3.org/2000/svg">
  <g transform="translate(-270 -80 )">
    <path d="M 2.265625 0  L 22.734375 0  C 23.0338541666667 0  23.3203125 0.0594844679444817  23.59375 0.178453403833445  C 24.0234375 0.350297422339718  24.365234375 0.621282220753469  24.619140625 0.991407799074686  C 24.873046875 1.3615333773959  25 1.7713152676801  25 2.2207534699273  L 25 27.7792465300727  C 25 28.2286847323199  24.873046875 28.6384666226041  24.619140625 29.0085922009253  C 24.365234375 29.3787177792465  24.0234375 29.6497025776603  23.59375 29.8215465961666  C 23.3463541666667 29.9272967614012  23.0598958333333 29.9801718440185  22.734375 29.9801718440185  C 22.109375 29.9801718440185  21.5690104166667 29.7686715135492  21.11328125 29.3456708526107  L 12.5 20.9385327164574  L 3.88671875 29.3456708526107  C 3.41796875 29.7818902842036  2.87760416666667 30  2.265625 30  C 1.96614583333333 30  1.6796875 29.9405155320555  1.40625 29.8215465961666  C 0.9765625 29.6497025776603  0.634765625 29.3787177792465  0.380859375 29.0085922009253  C 0.126953125 28.6384666226041  0 28.2286847323199  0 27.7792465300727  L 0 2.2207534699273  C 0 1.7713152676801  0.126953125 1.3615333773959  0.380859375 0.991407799074686  C 0.634765625 0.621282220753469  0.9765625 0.350297422339718  1.40625 0.178453403833445  C 1.6796875 0.0594844679444817  1.96614583333333 0  2.265625 0  Z " fill-rule="nonzero" fill="#999999" stroke="none" transform="matrix(1 0 0 1 270 80 )" />
  </g>
</svg>